STARTFONT 2.1
FONT -Monotype-Monotype Corsiva-Regular-R-Normal--14-100-100-100-P-61-iso8859-2
SIZE 10 100 100
FONTBOUNDINGBOX 17 16 -3 -4

STARTPROPERTIES 24
FOUNDRY "Monotype"
FAMILY_NAME "Monotype Corsiva"
WEIGHT_NAME "Regular"
SLANT "R"
SETWIDTH_NAME "Normal"
ADD_STYLE_NAME ""
PIXEL_SIZE 14
POINT_SIZE 100
RESOLUTION_X 100
RESOLUTION_Y 100
SPACING "P"
AVERAGE_WIDTH 61
CHARSET_REGISTRY "iso8859"
CHARSET_ENCODING "2"
FACE_NAME "Monotype Corsiva ISO Latin2"
_DEC_DEVICE_FONTNAMES "PS=monotypecorsiva-lat2"
COPYRIGHT "Copyright (c) 1994 Monotype Typography Ltd."
CAP_HEIGHT 11
X_HEIGHT 7
WEIGHT 10
QUAD_WIDTH 7
DEFAULT_CHAR 160
FONT_DESCENT 5
FONT_ASCENT 13
ENDPROPERTIES

CHARS 191

STARTCHAR space
ENCODING 32
SWIDTH 220 0
DWIDTH 3 0
BBX 0 0 0 0
BITMAP
ENDCHAR

STARTCHAR exclam
ENCODING 33
SWIDTH 280 0
DWIDTH 4 0
BBX 2 10 2 0
BITMAP
40
40
40
40
80
80
80
00
80
80
ENDCHAR

STARTCHAR quotedbl
ENCODING 34
SWIDTH 220 0
DWIDTH 3 0
BBX 3 4 0 6
BITMAP
A0
A0
A0
A0
ENDCHAR

STARTCHAR numbersign
ENCODING 35
SWIDTH 680 0
DWIDTH 10 0
BBX 8 10 1 0
BITMAP
12
12
12
7F
24
24
FE
48
48
48
ENDCHAR

STARTCHAR dollar
ENCODING 36
SWIDTH 440 0
DWIDTH 6 0
BBX 5 11 1 -1
BITMAP
10
38
50
50
50
20
50
50
50
E0
40
ENDCHAR

STARTCHAR percent
ENCODING 37
SWIDTH 680 0
DWIDTH 10 0
BBX 8 9 2 0
BITMAP
44
A4
A8
48
10
22
25
45
42
ENDCHAR

STARTCHAR ampersand
ENCODING 38
SWIDTH 780 0
DWIDTH 11 0
BBX 11 11 0 -1
BITMAP
0020
01C0
0280
0480
6500
A100
B100
8A00
4420
3A40
0180
ENDCHAR

STARTCHAR quoteright
ENCODING 39
SWIDTH 240 0
DWIDTH 3 0
BBX 2 4 1 6
BITMAP
40
40
40
80
ENDCHAR

STARTCHAR parenleft
ENCODING 40
SWIDTH 260 0
DWIDTH 4 0
BBX 6 14 0 -4
BITMAP
04
08
10
20
40
40
40
80
80
80
80
80
40
40
ENDCHAR

STARTCHAR parenright
ENCODING 41
SWIDTH 220 0
DWIDTH 4 0
BBX 6 14 0 -4
BITMAP
08
08
04
04
04
04
04
08
08
08
10
20
40
80
ENDCHAR

STARTCHAR asterisk
ENCODING 42
SWIDTH 420 0
DWIDTH 6 0
BBX 5 5 1 5
BITMAP
20
20
D8
20
50
ENDCHAR

STARTCHAR plus
ENCODING 43
SWIDTH 520 0
DWIDTH 7 0
BBX 5 5 1 2
BITMAP
20
20
F8
20
20
ENDCHAR

STARTCHAR comma
ENCODING 44
SWIDTH 220 0
DWIDTH 3 0
BBX 2 4 1 -2
BITMAP
40
40
40
80
ENDCHAR

STARTCHAR minus
ENCODING 45
SWIDTH 600 0
DWIDTH 8 0
BBX 7 1 1 4
BITMAP
FE
ENDCHAR

STARTCHAR period
ENCODING 46
SWIDTH 220 0
DWIDTH 3 0
BBX 1 2 1 0
BITMAP
80
80
ENDCHAR

STARTCHAR slash
ENCODING 47
SWIDTH 340 0
DWIDTH 5 0
BBX 10 14 -1 -4
BITMAP
0040
0080
0080
0100
0200
0200
0400
0800
0800
1000
2000
2000
4000
8000
ENDCHAR

STARTCHAR zero
ENCODING 48
SWIDTH 440 0
DWIDTH 6 0
BBX 5 9 1 0
BITMAP
30
48
48
88
88
88
90
90
60
ENDCHAR

STARTCHAR one
ENCODING 49
SWIDTH 440 0
DWIDTH 6 0
BBX 5 9 1 0
BITMAP
10
70
10
10
10
20
20
20
F8
ENDCHAR

STARTCHAR two
ENCODING 50
SWIDTH 440 0
DWIDTH 6 0
BBX 6 9 0 0
BITMAP
18
24
04
04
08
10
20
44
F8
ENDCHAR

STARTCHAR three
ENCODING 51
SWIDTH 440 0
DWIDTH 6 0
BBX 5 9 1 0
BITMAP
30
48
08
10
28
08
08
90
60
ENDCHAR

STARTCHAR four
ENCODING 52
SWIDTH 440 0
DWIDTH 6 0
BBX 5 9 1 0
BITMAP
08
18
28
48
48
90
F8
10
10
ENDCHAR

STARTCHAR five
ENCODING 53
SWIDTH 440 0
DWIDTH 6 0
BBX 6 9 0 0
BITMAP
3C
20
20
30
08
08
08
90
60
ENDCHAR

STARTCHAR six
ENCODING 54
SWIDTH 440 0
DWIDTH 6 0
BBX 5 9 1 0
BITMAP
18
20
40
B0
C8
88
88
90
60
ENDCHAR

STARTCHAR seven
ENCODING 55
SWIDTH 440 0
DWIDTH 6 0
BBX 5 9 1 0
BITMAP
F8
88
10
20
40
40
80
80
80
ENDCHAR

STARTCHAR eight
ENCODING 56
SWIDTH 440 0
DWIDTH 6 0
BBX 6 9 0 0
BITMAP
18
24
44
48
30
48
88
90
60
ENDCHAR

STARTCHAR nine
ENCODING 57
SWIDTH 440 0
DWIDTH 6 0
BBX 5 9 1 0
BITMAP
30
48
88
88
98
68
10
20
C0
ENDCHAR

STARTCHAR colon
ENCODING 58
SWIDTH 260 0
DWIDTH 4 0
BBX 2 6 1 0
BITMAP
40
40
00
00
80
80
ENDCHAR

STARTCHAR semicolon
ENCODING 59
SWIDTH 240 0
DWIDTH 3 0
BBX 3 8 0 -2
BITMAP
20
20
00
00
40
40
40
80
ENDCHAR

STARTCHAR less
ENCODING 60
SWIDTH 520 0
DWIDTH 7 0
BBX 6 5 1 2
BITMAP
0C
30
C0
30
0C
ENDCHAR

STARTCHAR equal
ENCODING 61
SWIDTH 520 0
DWIDTH 7 0
BBX 6 3 1 3
BITMAP
FC
00
FC
ENDCHAR

STARTCHAR greater
ENCODING 62
SWIDTH 520 0
DWIDTH 7 0
BBX 6 5 1 2
BITMAP
C0
30
0C
30
C0
ENDCHAR

STARTCHAR question
ENCODING 63
SWIDTH 380 0
DWIDTH 5 0
BBX 5 10 0 0
BITMAP
30
48
08
08
30
40
40
00
80
80
ENDCHAR

STARTCHAR at
ENCODING 64
SWIDTH 700 0
DWIDTH 10 0
BBX 9 9 1 0
BITMAP
1E00
6100
4E80
9280
A500
AD00
B680
4180
3E00
ENDCHAR

STARTCHAR A
ENCODING 65
SWIDTH 620 0
DWIDTH 9 0
BBX 10 10 -1 -1
BITMAP
0780
0980
0A80
0280
0480
0700
0900
1100
21C0
C000
ENDCHAR

STARTCHAR B
ENCODING 66
SWIDTH 600 0
DWIDTH 8 0
BBX 8 9 0 0
BITMAP
1E
21
49
89
8E
91
51
12
7C
ENDCHAR

STARTCHAR C
ENCODING 67
SWIDTH 520 0
DWIDTH 7 0
BBX 7 10 0 -1
BITMAP
1E
22
42
40
80
80
80
80
44
38
ENDCHAR

STARTCHAR D
ENCODING 68
SWIDTH 700 0
DWIDTH 10 0
BBX 9 9 1 0
BITMAP
3E00
4100
8880
8880
8880
9080
5080
1100
7E00
ENDCHAR

STARTCHAR E
ENCODING 69
SWIDTH 620 0
DWIDTH 9 0
BBX 8 9 1 0
BITMAP
3F
51
90
90
9E
20
20
21
7E
ENDCHAR

STARTCHAR F
ENCODING 70
SWIDTH 580 0
DWIDTH 9 0
BBX 8 9 1 0
BITMAP
3F
51
90
90
9E
20
20
20
78
ENDCHAR

STARTCHAR G
ENCODING 71
SWIDTH 620 0
DWIDTH 9 0
BBX 8 12 1 -3
BITMAP
1E
21
40
80
80
8F
82
42
3C
04
44
38
ENDCHAR

STARTCHAR H
ENCODING 72
SWIDTH 680 0
DWIDTH 10 0
BBX 11 10 0 0
BITMAP
0060
3C80
4880
4880
0880
0F00
1100
1100
9100
61C0
ENDCHAR

STARTCHAR I
ENCODING 73
SWIDTH 380 0
DWIDTH 5 0
BBX 4 9 1 0
BITMAP
70
20
20
20
40
40
40
40
E0
ENDCHAR

STARTCHAR J
ENCODING 74
SWIDTH 400 0
DWIDTH 6 0
BBX 6 11 0 -2
BITMAP
1C
24
24
04
04
04
08
08
08
90
60
ENDCHAR

STARTCHAR K
ENCODING 75
SWIDTH 660 0
DWIDTH 9 0
BBX 10 11 0 -2
BITMAP
7380
9200
9400
1800
1800
2400
2400
2400
7200
0240
0180
ENDCHAR

STARTCHAR L
ENCODING 76
SWIDTH 580 0
DWIDTH 8 0
BBX 7 9 1 0
BITMAP
18
24
20
20
20
40
40
42
FC
ENDCHAR

STARTCHAR M
ENCODING 77
SWIDTH 840 0
DWIDTH 12 0
BBX 11 9 1 0
BITMAP
7840
88C0
8D40
5540
1640
1680
1480
2480
C4E0
ENDCHAR

STARTCHAR N
ENCODING 78
SWIDTH 700 0
DWIDTH 10 0
BBX 11 9 1 0
BITMAP
7860
8880
8880
5480
1500
1500
2200
2200
C200
ENDCHAR

STARTCHAR O
ENCODING 79
SWIDTH 600 0
DWIDTH 8 0
BBX 7 9 1 0
BITMAP
1C
22
42
42
82
84
84
88
70
ENDCHAR

STARTCHAR P
ENCODING 80
SWIDTH 540 0
DWIDTH 8 0
BBX 8 9 0 0
BITMAP
3E
41
89
89
8E
90
50
10
3C
ENDCHAR

STARTCHAR Q
ENCODING 81
SWIDTH 600 0
DWIDTH 8 0
BBX 9 13 1 -4
BITMAP
1C00
2200
4200
4200
8200
8400
8400
8800
7000
2000
1000
0C80
0300
ENDCHAR

STARTCHAR R
ENCODING 82
SWIDTH 600 0
DWIDTH 8 0
BBX 11 11 0 -2
BITMAP
3E00
4100
8900
8900
4E00
1200
1200
1200
3900
0120
00C0
ENDCHAR

STARTCHAR S
ENCODING 83
SWIDTH 460 0
DWIDTH 6 0
BBX 6 10 0 -1
BITMAP
1C
24
20
20
10
08
08
88
88
70
ENDCHAR

STARTCHAR T
ENCODING 84
SWIDTH 500 0
DWIDTH 7 0
BBX 9 10 0 0
BITMAP
0080
7F00
8800
8800
4800
0800
1000
1000
1000
3C00
ENDCHAR

STARTCHAR U
ENCODING 85
SWIDTH 740 0
DWIDTH 10 0
BBX 9 10 1 0
BITMAP
0100
7080
9080
9080
1100
2100
2100
2100
2200
1C00
ENDCHAR

STARTCHAR V
ENCODING 86
SWIDTH 640 0
DWIDTH 9 0
BBX 9 10 1 0
BITMAP
0100
7080
9080
9100
9100
2200
2400
2800
3000
2000
ENDCHAR

STARTCHAR W
ENCODING 87
SWIDTH 880 0
DWIDTH 12 0
BBX 12 10 1 0
BITMAP
0020
7210
9210
9210
A620
2A40
4A80
5300
6300
4200
ENDCHAR

STARTCHAR X
ENCODING 88
SWIDTH 560 0
DWIDTH 8 0
BBX 10 11 0 -1
BITMAP
00C0
3900
0A00
0C00
0800
0800
0C00
1400
2400
2700
C000
ENDCHAR

STARTCHAR Y
ENCODING 89
SWIDTH 560 0
DWIDTH 8 0
BBX 9 10 0 0
BITMAP
0180
3100
4900
8A00
8A00
0C00
0800
0800
0800
1C00
ENDCHAR

STARTCHAR Z
ENCODING 90
SWIDTH 620 0
DWIDTH 9 0
BBX 8 9 1 0
BITMAP
1F
21
02
04
08
10
20
41
FE
ENDCHAR

STARTCHAR bracketleft
ENCODING 91
SWIDTH 240 0
DWIDTH 3 0
BBX 4 14 0 -4
BITMAP
30
20
20
20
40
40
40
40
40
40
80
80
80
C0
ENDCHAR

STARTCHAR backslash
ENCODING 92
SWIDTH 480 0
DWIDTH 7 0
BBX 7 14 0 -4
BITMAP
80
80
40
40
20
20
10
10
08
08
04
04
02
02
ENDCHAR

STARTCHAR bracketright
ENCODING 93
SWIDTH 320 0
DWIDTH 3 0
BBX 4 14 0 -4
BITMAP
30
10
10
10
20
20
20
20
20
20
40
40
40
C0
ENDCHAR

STARTCHAR asciicircum
ENCODING 94
SWIDTH 520 0
DWIDTH 7 0
BBX 4 4 2 5
BITMAP
20
20
50
90
ENDCHAR

STARTCHAR underscore
ENCODING 95
SWIDTH 500 0
DWIDTH 7 0
BBX 7 1 0 -2
BITMAP
FE
ENDCHAR

STARTCHAR quoteleft
ENCODING 96
SWIDTH 240 0
DWIDTH 3 0
BBX 2 4 1 6
BITMAP
40
80
80
80
ENDCHAR

STARTCHAR a
ENCODING 97
SWIDTH 420 0
DWIDTH 6 0
BBX 5 6 1 0
BITMAP
38
48
48
90
B0
D8
ENDCHAR

STARTCHAR b
ENCODING 98
SWIDTH 420 0
DWIDTH 6 0
BBX 5 10 1 0
BITMAP
18
20
40
40
B0
C8
88
88
90
60
ENDCHAR

STARTCHAR c
ENCODING 99
SWIDTH 340 0
DWIDTH 5 0
BBX 4 6 1 0
BITMAP
30
40
80
80
90
60
ENDCHAR

STARTCHAR d
ENCODING 100
SWIDTH 440 0
DWIDTH 6 0
BBX 7 10 1 0
BITMAP
06
08
08
08
38
48
90
90
B0
D8
ENDCHAR

STARTCHAR e
ENCODING 101
SWIDTH 340 0
DWIDTH 5 0
BBX 4 6 1 0
BITMAP
30
50
50
E0
90
60
ENDCHAR

STARTCHAR f
ENCODING 102
SWIDTH 320 0
DWIDTH 4 0
BBX 8 14 -1 -4
BITMAP
03
04
04
08
3E
08
08
10
10
10
20
20
20
C0
ENDCHAR

STARTCHAR g
ENCODING 103
SWIDTH 400 0
DWIDTH 6 0
BBX 6 10 0 -4
BITMAP
1C
24
24
48
58
68
08
10
90
60
ENDCHAR

STARTCHAR h
ENCODING 104
SWIDTH 440 0
DWIDTH 6 0
BBX 5 10 1 0
BITMAP
18
20
20
40
58
68
48
90
90
98
ENDCHAR

STARTCHAR i
ENCODING 105
SWIDTH 240 0
DWIDTH 3 0
BBX 3 9 0 0
BITMAP
20
00
00
40
C0
40
80
A0
C0
ENDCHAR

STARTCHAR j
ENCODING 106
SWIDTH 220 0
DWIDTH 3 0
BBX 6 13 -2 -4
BITMAP
04
00
08
18
08
08
08
10
10
10
10
20
C0
ENDCHAR

STARTCHAR k
ENCODING 107
SWIDTH 440 0
DWIDTH 6 0
BBX 8 13 1 -3
BITMAP
18
20
20
40
58
68
70
A0
90
90
10
09
06
ENDCHAR

STARTCHAR l
ENCODING 108
SWIDTH 240 0
DWIDTH 3 0
BBX 4 10 0 0
BITMAP
30
40
40
40
40
80
80
80
A0
40
ENDCHAR

STARTCHAR m
ENCODING 109
SWIDTH 620 0
DWIDTH 9 0
BBX 8 6 1 0
BITMAP
5B
ED
49
92
92
93
ENDCHAR

STARTCHAR n
ENCODING 110
SWIDTH 460 0
DWIDTH 6 0
BBX 5 6 1 0
BITMAP
58
E8
48
90
90
98
ENDCHAR

STARTCHAR o
ENCODING 111
SWIDTH 400 0
DWIDTH 6 0
BBX 5 6 1 0
BITMAP
30
48
88
88
90
60
ENDCHAR

STARTCHAR p
ENCODING 112
SWIDTH 440 0
DWIDTH 6 0
BBX 7 10 0 -4
BITMAP
14
3A
12
22
24
38
20
40
40
E0
ENDCHAR

STARTCHAR q
ENCODING 113
SWIDTH 400 0
DWIDTH 6 0
BBX 5 10 1 -4
BITMAP
38
48
48
90
B0
D0
20
20
20
70
ENDCHAR

STARTCHAR r
ENCODING 114
SWIDTH 300 0
DWIDTH 4 0
BBX 5 6 1 0
BITMAP
58
E0
40
80
80
80
ENDCHAR

STARTCHAR s
ENCODING 115
SWIDTH 320 0
DWIDTH 4 0
BBX 5 6 0 0
BITMAP
30
48
60
10
90
60
ENDCHAR

STARTCHAR t
ENCODING 116
SWIDTH 320 0
DWIDTH 4 0
BBX 3 8 1 0
BITMAP
40
40
E0
40
40
80
A0
C0
ENDCHAR

STARTCHAR u
ENCODING 117
SWIDTH 460 0
DWIDTH 6 0
BBX 5 6 1 0
BITMAP
48
C8
48
90
B0
D8
ENDCHAR

STARTCHAR v
ENCODING 118
SWIDTH 440 0
DWIDTH 6 0
BBX 7 6 0 0
BITMAP
72
92
12
24
28
30
ENDCHAR

STARTCHAR w
ENCODING 119
SWIDTH 680 0
DWIDTH 10 0
BBX 10 6 0 0
BITMAP
7240
9240
1240
2480
2D00
3200
ENDCHAR

STARTCHAR x
ENCODING 120
SWIDTH 420 0
DWIDTH 6 0
BBX 8 9 0 -3
BITMAP
36
14
08
18
28
C8
04
05
02
ENDCHAR

STARTCHAR y
ENCODING 121
SWIDTH 400 0
DWIDTH 6 0
BBX 7 10 -1 -4
BITMAP
14
32
12
0A
0C
04
08
08
30
C0
ENDCHAR

STARTCHAR z
ENCODING 122
SWIDTH 440 0
DWIDTH 6 0
BBX 5 6 1 0
BITMAP
38
48
10
20
48
B0
ENDCHAR

STARTCHAR braceleft
ENCODING 123
SWIDTH 240 0
DWIDTH 3 0
BBX 5 14 0 -4
BITMAP
18
20
20
20
20
40
80
40
40
80
80
80
80
60
ENDCHAR

STARTCHAR bar
ENCODING 124
SWIDTH 520 0
DWIDTH 7 0
BBX 1 14 3 -4
BITMAP
80
80
80
80
80
80
80
80
80
80
80
80
80
80
ENDCHAR

STARTCHAR braceright
ENCODING 125
SWIDTH 240 0
DWIDTH 3 0
BBX 5 14 0 -4
BITMAP
30
08
08
08
08
10
10
08
10
20
20
20
20
C0
ENDCHAR

STARTCHAR asciitilde
ENCODING 126
SWIDTH 520 0
DWIDTH 7 0
BBX 6 2 1 3
BITMAP
64
98
ENDCHAR

STARTCHAR space
ENCODING 160
SWIDTH 220 0
DWIDTH 4 0
BBX 0 0 0 0
BITMAP
ENDCHAR

STARTCHAR Aogonek
ENCODING 161
SWIDTH 620 0
DWIDTH 9 0
BBX 10 12 -1 -3
BITMAP
0780
0980
1280
1280
0480
0700
0900
1100
21C0
C100
0100
0080
ENDCHAR

STARTCHAR breve
ENCODING 162
SWIDTH 440 0
DWIDTH 6 0
BBX 4 2 1 7
BITMAP
90
60
ENDCHAR

STARTCHAR Lslash
ENCODING 163
SWIDTH 580 0
DWIDTH 8 0
BBX 7 9 1 0
BITMAP
18
20
20
38
20
C0
40
42
FC
ENDCHAR

STARTCHAR currency
ENCODING 164
SWIDTH 600 0
DWIDTH 8 0
BBX 6 6 1 1
BITMAP
B4
48
84
84
48
B4
ENDCHAR

STARTCHAR Lcaron
ENCODING 165
SWIDTH 580 0
DWIDTH 8 0
BBX 8 9 1 0
BITMAP
1B
21
22
20
20
40
40
42
FC
ENDCHAR

STARTCHAR Sacute
ENCODING 166
SWIDTH 460 0
DWIDTH 6 0
BBX 6 12 0 0
BITMAP
04
08
00
18
24
24
20
10
08
88
48
30
ENDCHAR

STARTCHAR section
ENCODING 167
SWIDTH 420 0
DWIDTH 6 0
BBX 8 13 -1 -3
BITMAP
07
0D
18
28
24
24
24
14
14
14
18
B0
E0
ENDCHAR

STARTCHAR dieresis
ENCODING 168
SWIDTH 360 0
DWIDTH 5 0
BBX 3 1 1 7
BITMAP
A0
ENDCHAR

STARTCHAR Scaron
ENCODING 169
SWIDTH 460 0
DWIDTH 6 0
BBX 6 12 0 0
BITMAP
34
18
00
18
24
24
20
10
08
88
48
30
ENDCHAR

STARTCHAR Scommaaccent
ENCODING 170
SWIDTH 460 0
DWIDTH 6 0
BBX 6 13 0 -4
BITMAP
18
24
24
20
10
08
88
48
30
00
60
20
40
ENDCHAR

STARTCHAR Tcaron
ENCODING 171
SWIDTH 500 0
DWIDTH 7 0
BBX 9 12 0 0
BITMAP
3400
1800
0080
7F00
8800
8800
4800
0800
1000
1000
1000
3800
ENDCHAR

STARTCHAR Zacute
ENCODING 172
SWIDTH 620 0
DWIDTH 9 0
BBX 8 12 1 0
BITMAP
02
04
00
1F
21
02
04
08
10
20
41
FF
ENDCHAR

STARTCHAR hyphen
ENCODING 173
SWIDTH 280 0
DWIDTH 4 0
BBX 4 1 0 2
BITMAP
F0
ENDCHAR

STARTCHAR Zcaron
ENCODING 174
SWIDTH 620 0
DWIDTH 9 0
BBX 8 12 1 0
BITMAP
0D
06
00
1F
21
02
04
08
10
20
41
FF
ENDCHAR

STARTCHAR Zdotaccent
ENCODING 175
SWIDTH 620 0
DWIDTH 9 0
BBX 8 11 1 0
BITMAP
04
00
1F
21
02
04
08
10
20
41
FF
ENDCHAR

STARTCHAR degree
ENCODING 176
SWIDTH 400 0
DWIDTH 6 0
BBX 4 4 1 4
BITMAP
60
90
90
60
ENDCHAR

STARTCHAR aogonek
ENCODING 177
SWIDTH 420 0
DWIDTH 6 0
BBX 5 9 1 -3
BITMAP
38
48
48
90
B8
D0
10
10
08
ENDCHAR

STARTCHAR ogonek
ENCODING 178
SWIDTH 280 0
DWIDTH 4 0
BBX 2 3 1 -3
BITMAP
80
80
40
ENDCHAR

STARTCHAR lslash
ENCODING 179
SWIDTH 300 0
DWIDTH 3 0
BBX 6 10 -1 0
BITMAP
1C
20
20
20
30
40
C0
40
50
20
ENDCHAR

STARTCHAR acute
ENCODING 180
SWIDTH 300 0
DWIDTH 4 0
BBX 2 2 1 7
BITMAP
40
80
ENDCHAR

STARTCHAR lcaron
ENCODING 181
SWIDTH 337 0
DWIDTH 5 0
BBX 7 10 0 0
BITMAP
3E
42
44
40
40
80
80
80
A0
40
ENDCHAR

STARTCHAR sacute
ENCODING 182
SWIDTH 320 0
DWIDTH 4 0
BBX 5 9 0 0
BITMAP
08
10
00
38
40
60
30
90
60
ENDCHAR

STARTCHAR caron
ENCODING 183
SWIDTH 340 0
DWIDTH 5 0
BBX 4 2 1 7
BITMAP
D0
60
ENDCHAR

STARTCHAR commaaccent
ENCODING 184
SWIDTH 333 0
DWIDTH 5 0
BBX 2 3 1 -4
BITMAP
C0
40
80
ENDCHAR

STARTCHAR scaron
ENCODING 185
SWIDTH 320 0
DWIDTH 4 0
BBX 6 9 0 0
BITMAP
34
18
00
38
40
60
30
90
60
ENDCHAR

STARTCHAR scommaaccent
ENCODING 186
SWIDTH 320 0
DWIDTH 4 0
BBX 5 10 0 -4
BITMAP
38
40
60
30
90
60
00
C0
40
80
ENDCHAR

STARTCHAR tcaron
ENCODING 187
SWIDTH 320 0
DWIDTH 4 0
BBX 5 8 1 0
BITMAP
58
48
F0
40
40
80
A0
C0
ENDCHAR

STARTCHAR zacute
ENCODING 188
SWIDTH 440 0
DWIDTH 6 0
BBX 5 9 1 0
BITMAP
08
10
00
78
08
10
20
48
B0
ENDCHAR

STARTCHAR hungarumlaut
ENCODING 189
SWIDTH 400 0
DWIDTH 6 0
BBX 4 2 1 7
BITMAP
50
A0
ENDCHAR

STARTCHAR zcaron
ENCODING 190
SWIDTH 440 0
DWIDTH 6 0
BBX 5 9 1 0
BITMAP
68
30
00
78
08
10
20
48
B0
ENDCHAR

STARTCHAR zdotaccent
ENCODING 191
SWIDTH 440 0
DWIDTH 6 0
BBX 5 8 1 0
BITMAP
10
00
78
08
10
20
48
B0
ENDCHAR

STARTCHAR Racute
ENCODING 192
SWIDTH 600 0
DWIDTH 8 0
BBX 11 14 0 -2
BITMAP
0200
0400
0000
3E00
4100
8900
8900
4E00
1200
1200
1200
3A00
0120
00C0
ENDCHAR

STARTCHAR Aacute
ENCODING 193
SWIDTH 620 0
DWIDTH 9 0
BBX 10 13 -1 -1
BITMAP
0080
0100
0000
0780
0980
1280
1280
0480
0700
0900
1100
21C0
C000
ENDCHAR

STARTCHAR Acircumflex
ENCODING 194
SWIDTH 620 0
DWIDTH 9 0
BBX 10 13 -1 -1
BITMAP
0180
02C0
0000
0780
0980
1280
1280
0480
0700
0900
1100
21C0
C000
ENDCHAR

STARTCHAR Abreve
ENCODING 195
SWIDTH 620 0
DWIDTH 9 0
BBX 10 13 -1 -1
BITMAP
0240
0180
0000
0780
0980
1280
1280
0480
0700
0900
1100
21C0
C000
ENDCHAR

STARTCHAR Adieresis
ENCODING 196
SWIDTH 620 0
DWIDTH 9 0
BBX 10 12 -1 -1
BITMAP
0280
0000
0780
0980
1280
1280
0480
0700
0900
1100
21C0
C000
ENDCHAR

STARTCHAR Lacute
ENCODING 197
SWIDTH 580 0
DWIDTH 8 0
BBX 7 12 1 0
BITMAP
04
08
00
18
20
20
20
20
40
40
42
FC
ENDCHAR

STARTCHAR Cacute
ENCODING 198
SWIDTH 520 0
DWIDTH 7 0
BBX 7 13 0 -1
BITMAP
04
08
00
3C
42
42
40
80
80
80
80
44
38
ENDCHAR

STARTCHAR Ccedilla
ENCODING 199
SWIDTH 520 0
DWIDTH 7 0
BBX 7 13 0 -4
BITMAP
3C
42
42
40
80
80
80
80
44
38
30
10
20
ENDCHAR

STARTCHAR Ccaron
ENCODING 200
SWIDTH 520 0
DWIDTH 7 0
BBX 7 13 0 -1
BITMAP
34
18
00
3C
42
42
40
80
80
80
80
44
38
ENDCHAR

STARTCHAR Eacute
ENCODING 201
SWIDTH 620 0
DWIDTH 9 0
BBX 8 12 1 0
BITMAP
02
04
00
3F
51
90
90
9E
20
20
21
7E
ENDCHAR

STARTCHAR Eogonek
ENCODING 202
SWIDTH 620 0
DWIDTH 9 0
BBX 8 12 1 -3
BITMAP
3F
51
90
90
9E
20
20
21
7E
04
04
02
ENDCHAR

STARTCHAR Edieresis
ENCODING 203
SWIDTH 620 0
DWIDTH 9 0
BBX 8 11 1 0
BITMAP
0A
00
3F
51
90
90
9E
20
20
21
7E
ENDCHAR

STARTCHAR Ecaron
ENCODING 204
SWIDTH 620 0
DWIDTH 9 0
BBX 8 12 1 0
BITMAP
1A
0C
00
3F
51
90
90
9E
20
20
21
7E
ENDCHAR

STARTCHAR Iacute
ENCODING 205
SWIDTH 380 0
DWIDTH 5 0
BBX 4 12 1 0
BITMAP
10
20
00
70
20
20
20
40
40
40
40
E0
ENDCHAR

STARTCHAR Icircumflex
ENCODING 206
SWIDTH 380 0
DWIDTH 5 0
BBX 5 12 1 0
BITMAP
30
68
00
70
20
20
20
40
40
40
40
E0
ENDCHAR

STARTCHAR Dcaron
ENCODING 207
SWIDTH 700 0
DWIDTH 10 0
BBX 9 12 1 0
BITMAP
1A00
0C00
0000
3E00
4100
8880
8880
9080
5080
1080
1100
3E00
ENDCHAR

STARTCHAR Dcroat
ENCODING 208
SWIDTH 700 0
DWIDTH 10 0
BBX 9 9 1 0
BITMAP
3E00
4100
8880
8880
BC80
5080
1080
1100
3E00
ENDCHAR

STARTCHAR Nacute
ENCODING 209
SWIDTH 700 0
DWIDTH 10 0
BBX 12 12 0 0
BITMAP
0080
0100
0000
1C30
2440
4440
4A40
0A80
0A80
1100
1100
E100
ENDCHAR

STARTCHAR Ncaron
ENCODING 210
SWIDTH 700 0
DWIDTH 10 0
BBX 12 12 0 0
BITMAP
0340
0180
0000
1C30
2440
4440
4A40
0A80
0A80
1100
1100
E100
ENDCHAR

STARTCHAR Oacute
ENCODING 211
SWIDTH 600 0
DWIDTH 8 0
BBX 7 12 1 0
BITMAP
04
08
00
1C
22
42
42
82
84
84
88
70
ENDCHAR

STARTCHAR Ocircumflex
ENCODING 212
SWIDTH 600 0
DWIDTH 8 0
BBX 7 12 1 0
BITMAP
0C
16
00
1C
22
42
42
82
84
84
88
70
ENDCHAR

STARTCHAR Ohungarumlaut
ENCODING 213
SWIDTH 600 0
DWIDTH 8 0
BBX 7 12 1 0
BITMAP
0A
14
00
1C
22
42
42
82
84
84
88
70
ENDCHAR

STARTCHAR Odieresis
ENCODING 214
SWIDTH 600 0
DWIDTH 8 0
BBX 7 11 1 0
BITMAP
0A
00
1C
22
42
42
82
84
84
88
70
ENDCHAR

STARTCHAR multiply
ENCODING 215
SWIDTH 520 0
DWIDTH 7 0
BBX 4 6 2 1
BITMAP
90
90
60
60
90
90
ENDCHAR

STARTCHAR Rcaron
ENCODING 216
SWIDTH 600 0
DWIDTH 8 0
BBX 11 14 0 -2
BITMAP
1A00
0C00
0000
3E00
4100
8900
8900
4E00
1200
1200
1200
3A00
0120
00C0
ENDCHAR

STARTCHAR Uring
ENCODING 217
SWIDTH 740 0
DWIDTH 10 0
BBX 9 12 1 0
BITMAP
0400
0A00
0480
7080
9080
9080
1100
2100
2100
2100
2200
1C00
ENDCHAR

STARTCHAR Uacute
ENCODING 218
SWIDTH 740 0
DWIDTH 10 0
BBX 9 12 1 0
BITMAP
0200
0400
0080
7080
9080
9080
1100
2100
2100
2100
2200
1C00
ENDCHAR

STARTCHAR Uhungarumlaut
ENCODING 219
SWIDTH 740 0
DWIDTH 10 0
BBX 9 12 1 0
BITMAP
0500
0A00
0080
7080
9080
9080
1100
2100
2100
2100
2200
1C00
ENDCHAR

STARTCHAR Udieresis
ENCODING 220
SWIDTH 740 0
DWIDTH 10 0
BBX 9 11 1 0
BITMAP
0A00
0080
7080
9080
9080
1100
2100
2100
2100
2200
1C00
ENDCHAR

STARTCHAR Yacute
ENCODING 221
SWIDTH 560 0
DWIDTH 8 0
BBX 9 12 0 0
BITMAP
0200
0400
0000
3180
4900
8A00
8A00
8C00
0800
0800
0800
1C00
ENDCHAR

STARTCHAR Tcommaaccent
ENCODING 222
SWIDTH 500 0
DWIDTH 7 0
BBX 9 14 0 -4
BITMAP
0080
7F00
8800
8800
4800
0800
1000
1000
1000
3800
0000
3000
1000
2000
ENDCHAR

STARTCHAR germandbls
ENCODING 223
SWIDTH 420 0
DWIDTH 6 0
BBX 10 13 -3 -3
BITMAP
0180
0240
0240
0480
0500
0500
0480
0880
0A80
0900
0800
1000
E000
ENDCHAR

STARTCHAR racute
ENCODING 224
SWIDTH 300 0
DWIDTH 4 0
BBX 5 9 1 0
BITMAP
10
20
00
58
E0
40
80
80
80
ENDCHAR

STARTCHAR aacute
ENCODING 225
SWIDTH 420 0
DWIDTH 6 0
BBX 5 9 1 0
BITMAP
08
10
00
38
48
48
90
B8
D0
ENDCHAR

STARTCHAR acircumflex
ENCODING 226
SWIDTH 420 0
DWIDTH 6 0
BBX 6 9 1 0
BITMAP
18
2C
00
38
48
48
90
B8
D0
ENDCHAR

STARTCHAR abreve
ENCODING 227
SWIDTH 420 0
DWIDTH 6 0
BBX 6 9 1 0
BITMAP
24
18
00
38
48
48
90
B8
D0
ENDCHAR

STARTCHAR adieresis
ENCODING 228
SWIDTH 420 0
DWIDTH 6 0
BBX 6 8 1 0
BITMAP
14
00
38
48
48
90
B8
D0
ENDCHAR

STARTCHAR lacute
ENCODING 229
SWIDTH 240 0
DWIDTH 3 0
BBX 5 12 0 0
BITMAP
10
20
38
40
40
40
40
80
80
80
A0
40
ENDCHAR

STARTCHAR cacute
ENCODING 230
SWIDTH 340 0
DWIDTH 5 0
BBX 4 9 1 0
BITMAP
10
20
00
30
40
80
80
90
60
ENDCHAR

STARTCHAR ccedilla
ENCODING 231
SWIDTH 340 0
DWIDTH 5 0
BBX 4 9 1 -3
BITMAP
30
40
80
80
90
60
C0
40
80
ENDCHAR

STARTCHAR ccaron
ENCODING 232
SWIDTH 340 0
DWIDTH 5 0
BBX 5 9 1 0
BITMAP
68
30
00
30
40
80
80
90
60
ENDCHAR

STARTCHAR eacute
ENCODING 233
SWIDTH 340 0
DWIDTH 5 0
BBX 4 9 1 0
BITMAP
10
20
00
30
50
60
80
90
60
ENDCHAR

STARTCHAR eogonek
ENCODING 234
SWIDTH 340 0
DWIDTH 5 0
BBX 4 9 1 -3
BITMAP
30
50
60
80
90
60
40
40
20
ENDCHAR

STARTCHAR edieresis
ENCODING 235
SWIDTH 340 0
DWIDTH 5 0
BBX 5 8 1 0
BITMAP
28
00
30
50
60
80
90
60
ENDCHAR

STARTCHAR ecaron
ENCODING 236
SWIDTH 340 0
DWIDTH 5 0
BBX 5 9 1 0
BITMAP
68
30
00
30
50
60
80
90
60
ENDCHAR

STARTCHAR iacute
ENCODING 237
SWIDTH 240 0
DWIDTH 3 0
BBX 3 9 0 0
BITMAP
20
40
00
40
C0
40
80
A0
C0
ENDCHAR

STARTCHAR icircumflex
ENCODING 238
SWIDTH 240 0
DWIDTH 3 0
BBX 4 9 0 0
BITMAP
60
D0
00
40
C0
40
80
A0
C0
ENDCHAR

STARTCHAR dcaron
ENCODING 239
SWIDTH 483 0
DWIDTH 7 0
BBX 9 10 1 0
BITMAP
0780
0880
0900
0800
3800
4800
5000
9000
B800
D000
ENDCHAR

STARTCHAR dcroat
ENCODING 240
SWIDTH 440 0
DWIDTH 6 0
BBX 7 10 1 0
BITMAP
06
08
3E
08
38
48
50
90
B8
D0
ENDCHAR

STARTCHAR nacute
ENCODING 241
SWIDTH 460 0
DWIDTH 6 0
BBX 5 9 1 0
BITMAP
08
10
00
D0
68
48
90
98
90
ENDCHAR

STARTCHAR ncaron
ENCODING 242
SWIDTH 460 0
DWIDTH 6 0
BBX 5 9 1 0
BITMAP
68
30
00
D0
68
48
90
98
90
ENDCHAR

STARTCHAR oacute
ENCODING 243
SWIDTH 400 0
DWIDTH 6 0
BBX 5 9 1 0
BITMAP
10
20
00
30
48
88
88
90
60
ENDCHAR

STARTCHAR ocircumflex
ENCODING 244
SWIDTH 400 0
DWIDTH 6 0
BBX 5 9 1 0
BITMAP
30
68
00
30
48
88
88
90
60
ENDCHAR

STARTCHAR ohungarumlaut
ENCODING 245
SWIDTH 400 0
DWIDTH 6 0
BBX 5 9 1 0
BITMAP
28
50
00
30
48
88
88
90
60
ENDCHAR

STARTCHAR odieresis
ENCODING 246
SWIDTH 400 0
DWIDTH 6 0
BBX 5 8 1 0
BITMAP
28
00
30
48
88
88
90
60
ENDCHAR

STARTCHAR divide
ENCODING 247
SWIDTH 520 0
DWIDTH 7 0
BBX 5 5 1 2
BITMAP
20
00
F8
00
20
ENDCHAR

STARTCHAR rcaron
ENCODING 248
SWIDTH 300 0
DWIDTH 4 0
BBX 5 9 1 0
BITMAP
68
30
00
58
E0
40
80
80
80
ENDCHAR

STARTCHAR uring
ENCODING 249
SWIDTH 460 0
DWIDTH 6 0
BBX 5 10 1 0
BITMAP
10
28
10
00
C8
48
48
90
B0
D8
ENDCHAR

STARTCHAR uacute
ENCODING 250
SWIDTH 460 0
DWIDTH 6 0
BBX 5 9 1 0
BITMAP
10
20
00
C8
48
48
90
B0
D8
ENDCHAR

STARTCHAR uhungarumlaut
ENCODING 251
SWIDTH 460 0
DWIDTH 6 0
BBX 5 9 1 0
BITMAP
28
50
00
C8
48
48
90
B0
D8
ENDCHAR

STARTCHAR udieresis
ENCODING 252
SWIDTH 460 0
DWIDTH 6 0
BBX 5 8 1 0
BITMAP
28
00
C8
48
48
90
B0
D8
ENDCHAR

STARTCHAR yacute
ENCODING 253
SWIDTH 400 0
DWIDTH 6 0
BBX 7 12 0 -3
BITMAP
04
08
00
76
12
12
0C
0C
04
08
30
C0
ENDCHAR

STARTCHAR tcommaaccent
ENCODING 254
SWIDTH 320 0
DWIDTH 4 0
BBX 3 12 1 -4
BITMAP
40
40
E0
40
40
80
A0
C0
00
C0
40
80
ENDCHAR

STARTCHAR dotaccent
ENCODING 255
SWIDTH 220 0
DWIDTH 3 0
BBX 1 1 1 7
BITMAP
80
ENDCHAR
ENDFONT
